<mxfile host="app.diagrams.net" modified="2023-05-10T12:00:08.979Z" agent="Mozilla/5.0 (Windows NT 10.0; Win64; x64) AppleWebKit/537.36 (KHTML, like Gecko) Chrome/112.0.0.0 Safari/537.36" etag="u03cCcbXMjg65ky61sw-" version="21.2.9" type="device">
  <diagram name="Side-1" id="u8_t7Rfu-tdNxOshk60E">
    <mxGraphModel dx="2899" dy="2315" grid="1" gridSize="10" guides="1" tooltips="1" connect="1" arrows="1" fold="1" page="1" pageScale="1" pageWidth="827" pageHeight="1169" math="0" shadow="0">
      <root>
        <mxCell id="0" />
        <mxCell id="1" parent="0" />
        <mxCell id="WXf3_eJt0GUmDHz3n-cz-1" value="&lt;font style=&quot;font-size: 24px;&quot;&gt;EER&lt;/font&gt;" style="text;html=1;strokeColor=none;fillColor=none;align=center;verticalAlign=middle;whiteSpace=wrap;rounded=0;" parent="1" vertex="1">
          <mxGeometry x="-460" y="-110" width="60" height="30" as="geometry" />
        </mxCell>
        <mxCell id="WXf3_eJt0GUmDHz3n-cz-47" style="edgeStyle=orthogonalEdgeStyle;rounded=0;orthogonalLoop=1;jettySize=auto;html=1;endArrow=ERone;endFill=0;startArrow=ERone;startFill=0;" parent="1" source="WXf3_eJt0GUmDHz3n-cz-9" target="WXf3_eJt0GUmDHz3n-cz-46" edge="1">
          <mxGeometry relative="1" as="geometry" />
        </mxCell>
        <mxCell id="WXf3_eJt0GUmDHz3n-cz-110" style="rounded=0;orthogonalLoop=1;jettySize=auto;html=1;entryX=0;entryY=0.5;entryDx=0;entryDy=0;endArrow=ERone;endFill=0;startArrow=ERone;startFill=0;" parent="1" source="WXf3_eJt0GUmDHz3n-cz-9" target="WXf3_eJt0GUmDHz3n-cz-109" edge="1">
          <mxGeometry relative="1" as="geometry" />
        </mxCell>
        <mxCell id="WXf3_eJt0GUmDHz3n-cz-9" value="champions" style="rounded=0;whiteSpace=wrap;html=1;" parent="1" vertex="1">
          <mxGeometry x="-200" y="210" width="200" height="60" as="geometry" />
        </mxCell>
        <mxCell id="WXf3_eJt0GUmDHz3n-cz-22" style="rounded=0;orthogonalLoop=1;jettySize=auto;html=1;endArrow=none;endFill=0;" parent="1" source="WXf3_eJt0GUmDHz3n-cz-10" target="WXf3_eJt0GUmDHz3n-cz-9" edge="1">
          <mxGeometry relative="1" as="geometry" />
        </mxCell>
        <mxCell id="WXf3_eJt0GUmDHz3n-cz-10" value="name" style="ellipse;whiteSpace=wrap;html=1;" parent="1" vertex="1">
          <mxGeometry x="-220" y="150" width="80" height="30" as="geometry" />
        </mxCell>
        <mxCell id="WXf3_eJt0GUmDHz3n-cz-11" value="version" style="ellipse;whiteSpace=wrap;html=1;" parent="1" vertex="1">
          <mxGeometry x="-90" y="90" width="80" height="30" as="geometry" />
        </mxCell>
        <mxCell id="WXf3_eJt0GUmDHz3n-cz-12" value="&lt;u&gt;champion_key&lt;/u&gt;" style="ellipse;whiteSpace=wrap;html=1;" parent="1" vertex="1">
          <mxGeometry x="-55" y="60" width="80" height="30" as="geometry" />
        </mxCell>
        <mxCell id="WXf3_eJt0GUmDHz3n-cz-14" value="attack" style="ellipse;whiteSpace=wrap;html=1;" parent="1" vertex="1">
          <mxGeometry x="-140" y="120" width="80" height="30" as="geometry" />
        </mxCell>
        <mxCell id="WXf3_eJt0GUmDHz3n-cz-16" value="blurb" style="ellipse;whiteSpace=wrap;html=1;" parent="1" vertex="1">
          <mxGeometry x="-245" y="90" width="80" height="30" as="geometry" />
        </mxCell>
        <mxCell id="WXf3_eJt0GUmDHz3n-cz-17" value="stats" style="ellipse;whiteSpace=wrap;html=1;" parent="1" vertex="1">
          <mxGeometry x="25" y="120" width="80" height="30" as="geometry" />
        </mxCell>
        <mxCell id="WXf3_eJt0GUmDHz3n-cz-21" value="" style="shape=image;verticalLabelPosition=bottom;labelBackgroundColor=default;verticalAlign=top;aspect=fixed;imageAspect=0;image=https://webusupload.apowersoft.info/gitmind/wp-content/uploads/2021/04/erd-symbols.jpg;" parent="1" vertex="1">
          <mxGeometry x="200" y="-490" width="520" height="344" as="geometry" />
        </mxCell>
        <mxCell id="WXf3_eJt0GUmDHz3n-cz-26" style="rounded=0;orthogonalLoop=1;jettySize=auto;html=1;endArrow=none;endFill=0;dashed=1;dashPattern=12 12;" parent="1" source="WXf3_eJt0GUmDHz3n-cz-25" target="WXf3_eJt0GUmDHz3n-cz-16" edge="1">
          <mxGeometry relative="1" as="geometry" />
        </mxCell>
        <mxCell id="WXf3_eJt0GUmDHz3n-cz-25" value="Champion lore excerpt" style="whiteSpace=wrap;html=1;shape=mxgraph.basic.document;" parent="1" vertex="1">
          <mxGeometry x="-265" y="-15" width="120" height="40" as="geometry" />
        </mxCell>
        <mxCell id="WXf3_eJt0GUmDHz3n-cz-28" style="rounded=0;orthogonalLoop=1;jettySize=auto;html=1;endArrow=none;endFill=0;dashed=1;dashPattern=12 12;" parent="1" source="WXf3_eJt0GUmDHz3n-cz-27" target="WXf3_eJt0GUmDHz3n-cz-12" edge="1">
          <mxGeometry relative="1" as="geometry" />
        </mxCell>
        <mxCell id="WXf3_eJt0GUmDHz3n-cz-27" value="riot primary key" style="whiteSpace=wrap;html=1;shape=mxgraph.basic.document;" parent="1" vertex="1">
          <mxGeometry x="-45" y="-15" width="120" height="40" as="geometry" />
        </mxCell>
        <mxCell id="WXf3_eJt0GUmDHz3n-cz-32" style="rounded=0;orthogonalLoop=1;jettySize=auto;html=1;entryX=0.75;entryY=0;entryDx=0;entryDy=0;endArrow=none;endFill=0;" parent="1" source="WXf3_eJt0GUmDHz3n-cz-31" target="WXf3_eJt0GUmDHz3n-cz-9" edge="1">
          <mxGeometry relative="1" as="geometry" />
        </mxCell>
        <mxCell id="WXf3_eJt0GUmDHz3n-cz-31" value="title" style="ellipse;whiteSpace=wrap;html=1;" parent="1" vertex="1">
          <mxGeometry x="-60" y="150" width="80" height="30" as="geometry" />
        </mxCell>
        <mxCell id="WXf3_eJt0GUmDHz3n-cz-33" value="defense" style="ellipse;whiteSpace=wrap;html=1;" parent="1" vertex="1">
          <mxGeometry x="-220" y="120" width="80" height="30" as="geometry" />
        </mxCell>
        <mxCell id="WXf3_eJt0GUmDHz3n-cz-35" value="difficulty" style="ellipse;whiteSpace=wrap;html=1;" parent="1" vertex="1">
          <mxGeometry x="-60" y="120" width="80" height="30" as="geometry" />
        </mxCell>
        <mxCell id="WXf3_eJt0GUmDHz3n-cz-38" style="rounded=0;orthogonalLoop=1;jettySize=auto;html=1;entryX=0.75;entryY=0;entryDx=0;entryDy=0;endArrow=none;endFill=0;" parent="1" source="WXf3_eJt0GUmDHz3n-cz-37" target="WXf3_eJt0GUmDHz3n-cz-9" edge="1">
          <mxGeometry relative="1" as="geometry" />
        </mxCell>
        <mxCell id="WXf3_eJt0GUmDHz3n-cz-37" value="imageUrl" style="ellipse;whiteSpace=wrap;html=1;" parent="1" vertex="1">
          <mxGeometry x="20" y="150" width="80" height="30" as="geometry" />
        </mxCell>
        <mxCell id="WXf3_eJt0GUmDHz3n-cz-45" style="rounded=0;orthogonalLoop=1;jettySize=auto;html=1;entryX=0.25;entryY=0;entryDx=0;entryDy=0;endArrow=none;endFill=0;" parent="1" source="WXf3_eJt0GUmDHz3n-cz-43" target="WXf3_eJt0GUmDHz3n-cz-9" edge="1">
          <mxGeometry relative="1" as="geometry" />
        </mxCell>
        <mxCell id="WXf3_eJt0GUmDHz3n-cz-43" value="tags" style="ellipse;whiteSpace=wrap;html=1;" parent="1" vertex="1">
          <mxGeometry x="-305" y="150" width="80" height="30" as="geometry" />
        </mxCell>
        <mxCell id="WXf3_eJt0GUmDHz3n-cz-46" value="champion_stats" style="rounded=0;whiteSpace=wrap;html=1;" parent="1" vertex="1">
          <mxGeometry x="290" y="210" width="120" height="60" as="geometry" />
        </mxCell>
        <mxCell id="WXf3_eJt0GUmDHz3n-cz-73" style="rounded=0;orthogonalLoop=1;jettySize=auto;html=1;entryX=0.25;entryY=0;entryDx=0;entryDy=0;endArrow=none;endFill=0;" parent="1" source="WXf3_eJt0GUmDHz3n-cz-48" target="WXf3_eJt0GUmDHz3n-cz-46" edge="1">
          <mxGeometry relative="1" as="geometry" />
        </mxCell>
        <mxCell id="WXf3_eJt0GUmDHz3n-cz-48" value="hp" style="ellipse;whiteSpace=wrap;html=1;" parent="1" vertex="1">
          <mxGeometry x="150" y="160" width="80" height="30" as="geometry" />
        </mxCell>
        <mxCell id="WXf3_eJt0GUmDHz3n-cz-49" value="hpperlevel" style="ellipse;whiteSpace=wrap;html=1;" parent="1" vertex="1">
          <mxGeometry x="150" y="130" width="80" height="30" as="geometry" />
        </mxCell>
        <mxCell id="WXf3_eJt0GUmDHz3n-cz-50" value="mpperlevel" style="ellipse;whiteSpace=wrap;html=1;" parent="1" vertex="1">
          <mxGeometry x="230" y="100" width="80" height="30" as="geometry" />
        </mxCell>
        <mxCell id="WXf3_eJt0GUmDHz3n-cz-51" value="mp" style="ellipse;whiteSpace=wrap;html=1;" parent="1" vertex="1">
          <mxGeometry x="150" y="100" width="80" height="30" as="geometry" />
        </mxCell>
        <mxCell id="WXf3_eJt0GUmDHz3n-cz-52" value="movespeed" style="ellipse;whiteSpace=wrap;html=1;" parent="1" vertex="1">
          <mxGeometry x="230" y="130" width="80" height="30" as="geometry" />
        </mxCell>
        <mxCell id="WXf3_eJt0GUmDHz3n-cz-75" style="rounded=0;orthogonalLoop=1;jettySize=auto;html=1;entryX=0.25;entryY=0;entryDx=0;entryDy=0;endArrow=none;endFill=0;" parent="1" source="WXf3_eJt0GUmDHz3n-cz-53" target="WXf3_eJt0GUmDHz3n-cz-46" edge="1">
          <mxGeometry relative="1" as="geometry" />
        </mxCell>
        <mxCell id="WXf3_eJt0GUmDHz3n-cz-53" value="armor" style="ellipse;whiteSpace=wrap;html=1;" parent="1" vertex="1">
          <mxGeometry x="230" y="160" width="80" height="30" as="geometry" />
        </mxCell>
        <mxCell id="WXf3_eJt0GUmDHz3n-cz-76" style="rounded=0;orthogonalLoop=1;jettySize=auto;html=1;endArrow=none;endFill=0;" parent="1" source="WXf3_eJt0GUmDHz3n-cz-54" target="WXf3_eJt0GUmDHz3n-cz-46" edge="1">
          <mxGeometry relative="1" as="geometry" />
        </mxCell>
        <mxCell id="WXf3_eJt0GUmDHz3n-cz-54" value="armorperlevel" style="ellipse;whiteSpace=wrap;html=1;" parent="1" vertex="1">
          <mxGeometry x="310" y="160" width="80" height="30" as="geometry" />
        </mxCell>
        <mxCell id="WXf3_eJt0GUmDHz3n-cz-56" value="spellblock" style="ellipse;whiteSpace=wrap;html=1;" parent="1" vertex="1">
          <mxGeometry x="310" y="130" width="80" height="30" as="geometry" />
        </mxCell>
        <mxCell id="WXf3_eJt0GUmDHz3n-cz-58" value="spellblockperlevel" style="ellipse;whiteSpace=wrap;html=1;" parent="1" vertex="1">
          <mxGeometry x="150" y="70" width="130" height="30" as="geometry" />
        </mxCell>
        <mxCell id="WXf3_eJt0GUmDHz3n-cz-60" value="attackrange" style="ellipse;whiteSpace=wrap;html=1;" parent="1" vertex="1">
          <mxGeometry x="310" y="100" width="80" height="30" as="geometry" />
        </mxCell>
        <mxCell id="WXf3_eJt0GUmDHz3n-cz-61" value="hpregen" style="ellipse;whiteSpace=wrap;html=1;" parent="1" vertex="1">
          <mxGeometry x="390" y="100" width="80" height="30" as="geometry" />
        </mxCell>
        <mxCell id="WXf3_eJt0GUmDHz3n-cz-62" value="hpregenperlevel" style="ellipse;whiteSpace=wrap;html=1;" parent="1" vertex="1">
          <mxGeometry x="360" y="45" width="110" height="30" as="geometry" />
        </mxCell>
        <mxCell id="WXf3_eJt0GUmDHz3n-cz-64" value="mpregen" style="ellipse;whiteSpace=wrap;html=1;" parent="1" vertex="1">
          <mxGeometry x="390" y="130" width="80" height="30" as="geometry" />
        </mxCell>
        <mxCell id="WXf3_eJt0GUmDHz3n-cz-65" value="mpregenperlevel" style="ellipse;whiteSpace=wrap;html=1;" parent="1" vertex="1">
          <mxGeometry x="230" y="45" width="110" height="30" as="geometry" />
        </mxCell>
        <mxCell id="WXf3_eJt0GUmDHz3n-cz-77" style="rounded=0;orthogonalLoop=1;jettySize=auto;html=1;entryX=0.75;entryY=0;entryDx=0;entryDy=0;endArrow=none;endFill=0;" parent="1" source="WXf3_eJt0GUmDHz3n-cz-66" target="WXf3_eJt0GUmDHz3n-cz-46" edge="1">
          <mxGeometry relative="1" as="geometry" />
        </mxCell>
        <mxCell id="WXf3_eJt0GUmDHz3n-cz-66" value="crit" style="ellipse;whiteSpace=wrap;html=1;" parent="1" vertex="1">
          <mxGeometry x="390" y="160" width="80" height="30" as="geometry" />
        </mxCell>
        <mxCell id="WXf3_eJt0GUmDHz3n-cz-67" value="critperlevel" style="ellipse;whiteSpace=wrap;html=1;" parent="1" vertex="1">
          <mxGeometry x="470" y="100" width="80" height="30" as="geometry" />
        </mxCell>
        <mxCell id="WXf3_eJt0GUmDHz3n-cz-69" value="attackdamage" style="ellipse;whiteSpace=wrap;html=1;" parent="1" vertex="1">
          <mxGeometry x="470" y="130" width="80" height="30" as="geometry" />
        </mxCell>
        <mxCell id="WXf3_eJt0GUmDHz3n-cz-70" value="attackdamageperlevel" style="ellipse;whiteSpace=wrap;html=1;" parent="1" vertex="1">
          <mxGeometry x="280" y="70" width="140" height="30" as="geometry" />
        </mxCell>
        <mxCell id="WXf3_eJt0GUmDHz3n-cz-71" value="attackspeedperlevel" style="ellipse;whiteSpace=wrap;html=1;" parent="1" vertex="1">
          <mxGeometry x="420" y="70" width="130" height="30" as="geometry" />
        </mxCell>
        <mxCell id="WXf3_eJt0GUmDHz3n-cz-78" style="rounded=0;orthogonalLoop=1;jettySize=auto;html=1;entryX=0.75;entryY=0;entryDx=0;entryDy=0;endArrow=none;endFill=0;" parent="1" source="WXf3_eJt0GUmDHz3n-cz-72" target="WXf3_eJt0GUmDHz3n-cz-46" edge="1">
          <mxGeometry relative="1" as="geometry" />
        </mxCell>
        <mxCell id="WXf3_eJt0GUmDHz3n-cz-72" value="attackspeed" style="ellipse;whiteSpace=wrap;html=1;" parent="1" vertex="1">
          <mxGeometry x="470" y="160" width="80" height="30" as="geometry" />
        </mxCell>
        <mxCell id="WXf3_eJt0GUmDHz3n-cz-79" value="" style="rounded=0;whiteSpace=wrap;html=1;fillColor=none;" parent="1" vertex="1">
          <mxGeometry x="305" y="220" width="90" height="40" as="geometry" />
        </mxCell>
        <mxCell id="WXf3_eJt0GUmDHz3n-cz-84" value="partype" style="ellipse;whiteSpace=wrap;html=1;" parent="1" vertex="1">
          <mxGeometry x="-325" y="90" width="80" height="30" as="geometry" />
        </mxCell>
        <mxCell id="WXf3_eJt0GUmDHz3n-cz-87" style="rounded=0;orthogonalLoop=1;jettySize=auto;html=1;endArrow=none;endFill=0;dashed=1;dashPattern=12 12;" parent="1" source="WXf3_eJt0GUmDHz3n-cz-86" target="WXf3_eJt0GUmDHz3n-cz-84" edge="1">
          <mxGeometry relative="1" as="geometry" />
        </mxCell>
        <mxCell id="WXf3_eJt0GUmDHz3n-cz-86" value="Champion ressource" style="whiteSpace=wrap;html=1;shape=mxgraph.basic.document;" parent="1" vertex="1">
          <mxGeometry x="-390" y="20" width="120" height="40" as="geometry" />
        </mxCell>
        <mxCell id="WXf3_eJt0GUmDHz3n-cz-89" value="info" style="ellipse;whiteSpace=wrap;html=1;" parent="1" vertex="1">
          <mxGeometry x="-140" y="150" width="80" height="30" as="geometry" />
        </mxCell>
        <mxCell id="WXf3_eJt0GUmDHz3n-cz-90" value="id" style="ellipse;whiteSpace=wrap;html=1;" parent="1" vertex="1">
          <mxGeometry x="-135" y="61" width="80" height="30" as="geometry" />
        </mxCell>
        <mxCell id="WXf3_eJt0GUmDHz3n-cz-91" value="rotations" style="rounded=0;whiteSpace=wrap;html=1;" parent="1" vertex="1">
          <mxGeometry x="-50" y="375" width="130" height="60" as="geometry" />
        </mxCell>
        <mxCell id="WXf3_eJt0GUmDHz3n-cz-92" value="" style="rounded=0;whiteSpace=wrap;html=1;fillColor=none;" parent="1" vertex="1">
          <mxGeometry x="-45" y="385" width="120" height="40" as="geometry" />
        </mxCell>
        <mxCell id="WXf3_eJt0GUmDHz3n-cz-94" style="rounded=0;orthogonalLoop=1;jettySize=auto;html=1;entryX=0.5;entryY=0;entryDx=0;entryDy=0;endArrow=none;endFill=0;" parent="1" source="WXf3_eJt0GUmDHz3n-cz-93" target="WXf3_eJt0GUmDHz3n-cz-91" edge="1">
          <mxGeometry relative="1" as="geometry" />
        </mxCell>
        <mxCell id="WXf3_eJt0GUmDHz3n-cz-93" value="champions" style="ellipse;whiteSpace=wrap;html=1;dashed=1;" parent="1" vertex="1">
          <mxGeometry x="-25" y="320" width="80" height="30" as="geometry" />
        </mxCell>
        <mxCell id="WXf3_eJt0GUmDHz3n-cz-99" style="rounded=0;orthogonalLoop=1;jettySize=auto;html=1;endArrow=ERmany;endFill=0;" parent="1" source="WXf3_eJt0GUmDHz3n-cz-97" target="WXf3_eJt0GUmDHz3n-cz-9" edge="1">
          <mxGeometry relative="1" as="geometry" />
        </mxCell>
        <mxCell id="WXf3_eJt0GUmDHz3n-cz-100" style="rounded=0;orthogonalLoop=1;jettySize=auto;html=1;entryX=0;entryY=0.5;entryDx=0;entryDy=0;endArrow=ERone;endFill=0;" parent="1" source="WXf3_eJt0GUmDHz3n-cz-97" target="WXf3_eJt0GUmDHz3n-cz-92" edge="1">
          <mxGeometry relative="1" as="geometry" />
        </mxCell>
        <mxCell id="WXf3_eJt0GUmDHz3n-cz-97" value="part of" style="rhombus;whiteSpace=wrap;html=1;" parent="1" vertex="1">
          <mxGeometry x="-140" y="390" width="80" height="30" as="geometry" />
        </mxCell>
        <mxCell id="WXf3_eJt0GUmDHz3n-cz-103" value="magick" style="ellipse;whiteSpace=wrap;html=1;" parent="1" vertex="1">
          <mxGeometry x="-300" y="117.5" width="80" height="30" as="geometry" />
        </mxCell>
        <mxCell id="WXf3_eJt0GUmDHz3n-cz-105" value="tags" style="ellipse;whiteSpace=wrap;html=1;fillColor=none;" parent="1" vertex="1">
          <mxGeometry x="-310" y="145" width="90" height="40" as="geometry" />
        </mxCell>
        <mxCell id="vY-c-kgBU0Y5t1cBSxCP-8" style="edgeStyle=orthogonalEdgeStyle;rounded=0;orthogonalLoop=1;jettySize=auto;html=1;entryX=0.5;entryY=0;entryDx=0;entryDy=0;endArrow=none;endFill=0;" edge="1" parent="1" source="WXf3_eJt0GUmDHz3n-cz-106" target="WXf3_eJt0GUmDHz3n-cz-9">
          <mxGeometry relative="1" as="geometry" />
        </mxCell>
        <mxCell id="WXf3_eJt0GUmDHz3n-cz-106" value="info" style="ellipse;whiteSpace=wrap;html=1;fillColor=none;" parent="1" vertex="1">
          <mxGeometry x="-145" y="145" width="90" height="40" as="geometry" />
        </mxCell>
        <mxCell id="WXf3_eJt0GUmDHz3n-cz-108" value="stats" style="ellipse;whiteSpace=wrap;html=1;fillColor=none;" parent="1" vertex="1">
          <mxGeometry x="20" y="117.5" width="90" height="35" as="geometry" />
        </mxCell>
        <mxCell id="WXf3_eJt0GUmDHz3n-cz-109" value="champion_image_data" style="rounded=0;whiteSpace=wrap;html=1;" parent="1" vertex="1">
          <mxGeometry x="200" y="385" width="158" height="40" as="geometry" />
        </mxCell>
        <mxCell id="WXf3_eJt0GUmDHz3n-cz-121" style="rounded=0;orthogonalLoop=1;jettySize=auto;html=1;endArrow=none;endFill=0;" parent="1" source="WXf3_eJt0GUmDHz3n-cz-111" target="WXf3_eJt0GUmDHz3n-cz-109" edge="1">
          <mxGeometry relative="1" as="geometry" />
        </mxCell>
        <mxCell id="WXf3_eJt0GUmDHz3n-cz-111" value="sprite" style="ellipse;whiteSpace=wrap;html=1;" parent="1" vertex="1">
          <mxGeometry x="239" y="335" width="80" height="30" as="geometry" />
        </mxCell>
        <mxCell id="WXf3_eJt0GUmDHz3n-cz-120" style="rounded=0;orthogonalLoop=1;jettySize=auto;html=1;entryX=0.25;entryY=0;entryDx=0;entryDy=0;endArrow=none;endFill=0;" parent="1" source="WXf3_eJt0GUmDHz3n-cz-112" target="WXf3_eJt0GUmDHz3n-cz-109" edge="1">
          <mxGeometry relative="1" as="geometry" />
        </mxCell>
        <mxCell id="WXf3_eJt0GUmDHz3n-cz-112" value="full" style="ellipse;whiteSpace=wrap;html=1;" parent="1" vertex="1">
          <mxGeometry x="159" y="335" width="80" height="30" as="geometry" />
        </mxCell>
        <mxCell id="WXf3_eJt0GUmDHz3n-cz-123" style="rounded=0;orthogonalLoop=1;jettySize=auto;html=1;entryX=0.75;entryY=0;entryDx=0;entryDy=0;endArrow=none;endFill=0;" parent="1" source="WXf3_eJt0GUmDHz3n-cz-113" target="WXf3_eJt0GUmDHz3n-cz-109" edge="1">
          <mxGeometry relative="1" as="geometry" />
        </mxCell>
        <mxCell id="WXf3_eJt0GUmDHz3n-cz-113" value="group" style="ellipse;whiteSpace=wrap;html=1;" parent="1" vertex="1">
          <mxGeometry x="319" y="335" width="80" height="30" as="geometry" />
        </mxCell>
        <mxCell id="WXf3_eJt0GUmDHz3n-cz-114" value="x" style="ellipse;whiteSpace=wrap;html=1;" parent="1" vertex="1">
          <mxGeometry x="219" y="305" width="30" height="30" as="geometry" />
        </mxCell>
        <mxCell id="WXf3_eJt0GUmDHz3n-cz-115" value="y" style="ellipse;whiteSpace=wrap;html=1;" parent="1" vertex="1">
          <mxGeometry x="249" y="305" width="30" height="30" as="geometry" />
        </mxCell>
        <mxCell id="WXf3_eJt0GUmDHz3n-cz-116" value="w" style="ellipse;whiteSpace=wrap;html=1;" parent="1" vertex="1">
          <mxGeometry x="279" y="305" width="30" height="30" as="geometry" />
        </mxCell>
        <mxCell id="WXf3_eJt0GUmDHz3n-cz-118" value="h" style="ellipse;whiteSpace=wrap;html=1;" parent="1" vertex="1">
          <mxGeometry x="309" y="305" width="30" height="30" as="geometry" />
        </mxCell>
        <mxCell id="vY-c-kgBU0Y5t1cBSxCP-2" style="rounded=0;orthogonalLoop=1;jettySize=auto;html=1;entryX=0.5;entryY=0;entryDx=0;entryDy=0;dashed=1;dashPattern=8 8;endArrow=none;endFill=0;" edge="1" parent="1" source="vY-c-kgBU0Y5t1cBSxCP-1" target="WXf3_eJt0GUmDHz3n-cz-90">
          <mxGeometry relative="1" as="geometry" />
        </mxCell>
        <mxCell id="vY-c-kgBU0Y5t1cBSxCP-1" value="sls internal pk" style="whiteSpace=wrap;html=1;shape=mxgraph.basic.document;" vertex="1" parent="1">
          <mxGeometry x="-120" y="-60" width="120" height="40" as="geometry" />
        </mxCell>
        <mxCell id="vY-c-kgBU0Y5t1cBSxCP-4" value="abilities" style="ellipse;whiteSpace=wrap;html=1;" vertex="1" parent="1">
          <mxGeometry x="-10" y="82.5" width="90" height="37.5" as="geometry" />
        </mxCell>
        <mxCell id="vY-c-kgBU0Y5t1cBSxCP-3" value="abilities" style="ellipse;whiteSpace=wrap;html=1;" vertex="1" parent="1">
          <mxGeometry x="-5" y="86.25" width="80" height="30" as="geometry" />
        </mxCell>
        <mxCell id="vY-c-kgBU0Y5t1cBSxCP-7" style="rounded=0;orthogonalLoop=1;jettySize=auto;html=1;entryX=0;entryY=0.5;entryDx=0;entryDy=0;endArrow=ERone;endFill=0;startArrow=ERmany;startFill=0;exitX=1;exitY=0.5;exitDx=0;exitDy=0;" edge="1" parent="1" source="vY-c-kgBU0Y5t1cBSxCP-5" target="WXf3_eJt0GUmDHz3n-cz-9">
          <mxGeometry relative="1" as="geometry" />
        </mxCell>
        <mxCell id="vY-c-kgBU0Y5t1cBSxCP-5" value="champion_abilities" style="rounded=0;whiteSpace=wrap;html=1;" vertex="1" parent="1">
          <mxGeometry x="-670" y="210" width="200" height="60" as="geometry" />
        </mxCell>
        <mxCell id="vY-c-kgBU0Y5t1cBSxCP-6" value="fetch_times" style="rounded=0;whiteSpace=wrap;html=1;" vertex="1" parent="1">
          <mxGeometry x="-280" y="552.5" width="200" height="60" as="geometry" />
        </mxCell>
        <mxCell id="vY-c-kgBU0Y5t1cBSxCP-14" style="rounded=0;orthogonalLoop=1;jettySize=auto;html=1;entryX=0.75;entryY=0;entryDx=0;entryDy=0;endArrow=none;endFill=0;" edge="1" parent="1" source="vY-c-kgBU0Y5t1cBSxCP-9" target="vY-c-kgBU0Y5t1cBSxCP-6">
          <mxGeometry relative="1" as="geometry" />
        </mxCell>
        <mxCell id="vY-c-kgBU0Y5t1cBSxCP-9" value="&lt;u&gt;id&lt;/u&gt;" style="ellipse;whiteSpace=wrap;html=1;" vertex="1" parent="1">
          <mxGeometry x="-160" y="492.5" width="80" height="30" as="geometry" />
        </mxCell>
        <mxCell id="vY-c-kgBU0Y5t1cBSxCP-13" style="rounded=0;orthogonalLoop=1;jettySize=auto;html=1;endArrow=none;endFill=0;entryX=0.25;entryY=0;entryDx=0;entryDy=0;" edge="1" parent="1" source="vY-c-kgBU0Y5t1cBSxCP-10" target="vY-c-kgBU0Y5t1cBSxCP-6">
          <mxGeometry relative="1" as="geometry" />
        </mxCell>
        <mxCell id="vY-c-kgBU0Y5t1cBSxCP-10" value="fetch_time_ms" style="ellipse;whiteSpace=wrap;html=1;" vertex="1" parent="1">
          <mxGeometry x="-280" y="490" width="80" height="30" as="geometry" />
        </mxCell>
        <mxCell id="vY-c-kgBU0Y5t1cBSxCP-15" style="rounded=0;orthogonalLoop=1;jettySize=auto;html=1;entryX=0.5;entryY=0;entryDx=0;entryDy=0;endArrow=none;endFill=0;" edge="1" parent="1" source="vY-c-kgBU0Y5t1cBSxCP-12" target="vY-c-kgBU0Y5t1cBSxCP-6">
          <mxGeometry relative="1" as="geometry" />
        </mxCell>
        <mxCell id="vY-c-kgBU0Y5t1cBSxCP-12" value="timestamp" style="ellipse;whiteSpace=wrap;html=1;" vertex="1" parent="1">
          <mxGeometry x="-230" y="460" width="100" height="40" as="geometry" />
        </mxCell>
        <mxCell id="vY-c-kgBU0Y5t1cBSxCP-11" value="timestamp" style="ellipse;whiteSpace=wrap;html=1;" vertex="1" parent="1">
          <mxGeometry x="-220" y="465" width="80" height="30" as="geometry" />
        </mxCell>
        <mxCell id="vY-c-kgBU0Y5t1cBSxCP-17" style="rounded=0;orthogonalLoop=1;jettySize=auto;html=1;entryX=0.5;entryY=1;entryDx=0;entryDy=0;endArrow=none;endFill=0;dashed=1;dashPattern=8 8;" edge="1" parent="1" source="vY-c-kgBU0Y5t1cBSxCP-16" target="WXf3_eJt0GUmDHz3n-cz-105">
          <mxGeometry relative="1" as="geometry" />
        </mxCell>
        <mxCell id="vY-c-kgBU0Y5t1cBSxCP-24" style="rounded=0;orthogonalLoop=1;jettySize=auto;html=1;entryX=1;entryY=1;entryDx=0;entryDy=0;endArrow=none;endFill=0;dashed=1;dashPattern=12 12;" edge="1" parent="1" source="vY-c-kgBU0Y5t1cBSxCP-16" target="vY-c-kgBU0Y5t1cBSxCP-23">
          <mxGeometry relative="1" as="geometry" />
        </mxCell>
        <mxCell id="vY-c-kgBU0Y5t1cBSxCP-16" value="inline string array" style="whiteSpace=wrap;html=1;shape=mxgraph.basic.document;" vertex="1" parent="1">
          <mxGeometry x="-400" y="250" width="120" height="40" as="geometry" />
        </mxCell>
        <mxCell id="vY-c-kgBU0Y5t1cBSxCP-18" value="champion_key" style="ellipse;whiteSpace=wrap;html=1;" vertex="1" parent="1">
          <mxGeometry x="295" y="21" width="110" height="30" as="geometry" />
        </mxCell>
        <mxCell id="vY-c-kgBU0Y5t1cBSxCP-19" value="tumbnailUrl" style="ellipse;whiteSpace=wrap;html=1;" vertex="1" parent="1">
          <mxGeometry x="-170" y="90" width="80" height="30" as="geometry" />
        </mxCell>
        <mxCell id="vY-c-kgBU0Y5t1cBSxCP-22" value="" style="ellipse;whiteSpace=wrap;html=1;" vertex="1" parent="1">
          <mxGeometry x="-515" y="145" width="80" height="30" as="geometry" />
        </mxCell>
        <mxCell id="vY-c-kgBU0Y5t1cBSxCP-25" style="rounded=0;orthogonalLoop=1;jettySize=auto;html=1;entryX=0.75;entryY=0;entryDx=0;entryDy=0;endArrow=none;endFill=0;" edge="1" parent="1" source="vY-c-kgBU0Y5t1cBSxCP-23" target="vY-c-kgBU0Y5t1cBSxCP-5">
          <mxGeometry relative="1" as="geometry" />
        </mxCell>
        <mxCell id="vY-c-kgBU0Y5t1cBSxCP-23" value="description" style="ellipse;whiteSpace=wrap;html=1;fillColor=none;" vertex="1" parent="1">
          <mxGeometry x="-520" y="140" width="90" height="40" as="geometry" />
        </mxCell>
        <mxCell id="vY-c-kgBU0Y5t1cBSxCP-26" value="champion_key" style="ellipse;whiteSpace=wrap;html=1;" vertex="1" parent="1">
          <mxGeometry x="-515" y="110" width="80" height="30" as="geometry" />
        </mxCell>
        <mxCell id="vY-c-kgBU0Y5t1cBSxCP-27" value="&lt;u&gt;id&lt;/u&gt;" style="ellipse;whiteSpace=wrap;html=1;" vertex="1" parent="1">
          <mxGeometry x="-515" y="80" width="80" height="30" as="geometry" />
        </mxCell>
        <mxCell id="vY-c-kgBU0Y5t1cBSxCP-28" value="id" style="ellipse;whiteSpace=wrap;html=1;" vertex="1" parent="1">
          <mxGeometry x="332.5" y="-9" width="35" height="30" as="geometry" />
        </mxCell>
      </root>
    </mxGraphModel>
  </diagram>
</mxfile>
